<svg width="16" height="10" viewBox="0 0 16 10" fill="none" xmlns="http://www.w3.org/2000/svg">
<path d="M8.34746 8.99394L15.0575 2.28382C15.2128 2.12862 15.2983 1.92145 15.2983 1.70054C15.2983 1.47964 15.2128 1.27246 15.0575 1.11727L14.5634 0.623115C14.2415 0.301566 13.7183 0.301566 13.3969 0.623115L7.76222 6.25776L2.12132 0.616863C1.966 0.461666 1.75895 0.375977 1.53817 0.375977C1.31714 0.375977 1.11009 0.461666 0.954649 0.616863L0.46074 1.11102C0.305421 1.26634 0.219854 1.47339 0.219854 1.69429C0.219854 1.9152 0.305421 2.12237 0.46074 2.27757L7.17686 8.99394C7.33267 9.1495 7.54071 9.23494 7.76186 9.23445C7.98386 9.23494 8.19177 9.1495 8.34746 8.99394Z" fill="#213F50"/>
</svg>
